<svg id="Layer_1" data-name="Layer 1" xmlns="http://www.w3.org/2000/svg" xmlns:xlink="http://www.w3.org/1999/xlink" viewBox="0 0 1475.4 315.72"><defs><style>.cls-1{fill:#f8baac;}.cls-2{fill:url(#linear-gradient);}.cls-3{fill:#ed8f7e;}.cls-4{fill:#ffc3b5;}.cls-5{fill:#f9bfb1;}.cls-6{fill:#dd806e;}.cls-7{fill:#e88579;}.cls-8{fill:#65322f;}.cls-9{fill:#f4b79e;}.cls-10{fill:#fad4cd;}.cls-11{fill:#fcd6cc;}.cls-12{fill:url(#linear-gradient-2);}.cls-13{fill:#ec9185;}.cls-14{fill:#ea8d7c;}.cls-15{fill:url(#linear-gradient-3);}.cls-16{fill:url(#linear-gradient-4);}.cls-17{fill:url(#linear-gradient-5);}.cls-18{fill:#f2d4c0;}.cls-19{fill:url(#linear-gradient-6);}.cls-20{fill:url(#linear-gradient-7);}.cls-21{fill:#adca88;}.cls-22{fill:url(#linear-gradient-8);}.cls-23{fill:#ed8d80;}.cls-24{fill:#d96d63;}.cls-25{fill:url(#linear-gradient-9);}.cls-26{fill:url(#linear-gradient-10);}.cls-27{fill:url(#linear-gradient-11);}.cls-28{fill:url(#linear-gradient-12);}.cls-29{fill:url(#linear-gradient-13);}.cls-30{fill:#aadbd8;}.cls-31{fill:#eb8c7f;}.cls-32{fill:#e29180;}.cls-33{fill:url(#linear-gradient-14);}.cls-34{fill:url(#linear-gradient-15);}.cls-35{fill:url(#linear-gradient-16);}.cls-36{fill:url(#linear-gradient-18);}.cls-37{fill:url(#linear-gradient-19);}.cls-38{fill:url(#linear-gradient-20);}.cls-39{fill:url(#linear-gradient-21);}.cls-40{fill:url(#linear-gradient-22);}.cls-41{fill:url(#linear-gradient-23);}</style><linearGradient id="linear-gradient" x1="59.4" y1="247.47" x2="277.45" y2="183.21" gradientUnits="userSpaceOnUse"><stop offset="0" stop-color="#f29f91"/><stop offset="1" stop-color="#fac0b1"/></linearGradient><linearGradient id="linear-gradient-2" x1="218.89" y1="257.66" x2="179.25" y2="191.35" gradientUnits="userSpaceOnUse"><stop offset="0.06" stop-color="#eb8578"/><stop offset="0.67" stop-color="#f4ac9d"/></linearGradient><linearGradient id="linear-gradient-3" x1="144.63" y1="104.79" x2="133.69" y2="-1.84" gradientUnits="userSpaceOnUse"><stop offset="0.06" stop-color="#a2c37f"/><stop offset="0.67" stop-color="#c2db99"/></linearGradient><linearGradient id="linear-gradient-4" x1="147.79" y1="104.46" x2="136.85" y2="-2.17" xlink:href="#linear-gradient-3"/><linearGradient id="linear-gradient-5" x1="144.85" y1="104.77" x2="133.91" y2="-1.87" xlink:href="#linear-gradient-3"/><linearGradient id="linear-gradient-6" x1="144.21" y1="104.83" x2="133.28" y2="-1.8" xlink:href="#linear-gradient-3"/><linearGradient id="linear-gradient-7" x1="143.34" y1="104.92" x2="132.4" y2="-1.71" xlink:href="#linear-gradient-3"/><linearGradient id="linear-gradient-8" x1="146.95" y1="104.55" x2="136.02" y2="-2.08" xlink:href="#linear-gradient-3"/><linearGradient id="linear-gradient-9" x1="126.23" y1="106.68" x2="115.3" y2="0.04" xlink:href="#linear-gradient-3"/><linearGradient id="linear-gradient-10" x1="124.96" y1="106.81" x2="114.02" y2="0.17" xlink:href="#linear-gradient-3"/><linearGradient id="linear-gradient-11" x1="124.52" y1="106.85" x2="113.58" y2="0.22" xlink:href="#linear-gradient-3"/><linearGradient id="linear-gradient-12" x1="115.84" y1="107.74" x2="104.9" y2="1.11" xlink:href="#linear-gradient-3"/><linearGradient id="linear-gradient-13" x1="114.21" y1="107.91" x2="103.27" y2="1.28" xlink:href="#linear-gradient-3"/><linearGradient id="linear-gradient-14" x1="285.06" y1="171.69" x2="1485.41" y2="171.69" gradientUnits="userSpaceOnUse"><stop offset="0" stop-color="#3a9b65"/><stop offset="1" stop-color="#328ea6"/></linearGradient><linearGradient id="linear-gradient-15" x1="285.06" y1="167.13" x2="1485.41" y2="167.13" xlink:href="#linear-gradient-14"/><linearGradient id="linear-gradient-16" x1="285.06" y1="222.18" x2="1485.41" y2="222.18" xlink:href="#linear-gradient-14"/><linearGradient id="linear-gradient-18" x1="285.06" y1="222.18" x2="1485.41" y2="222.18" xlink:href="#linear-gradient-14"/><linearGradient id="linear-gradient-19" x1="285.06" y1="222.53" x2="1485.41" y2="222.53" xlink:href="#linear-gradient-14"/><linearGradient id="linear-gradient-20" x1="285.06" y1="166.99" x2="1485.41" y2="166.99" xlink:href="#linear-gradient-14"/><linearGradient id="linear-gradient-21" x1="285.06" y1="195.65" x2="1485.41" y2="195.65" xlink:href="#linear-gradient-14"/><linearGradient id="linear-gradient-22" x1="285.06" y1="195.77" x2="1485.41" y2="195.77" xlink:href="#linear-gradient-14"/><linearGradient id="linear-gradient-23" x1="285.06" y1="174.85" x2="1485.41" y2="174.85" xlink:href="#linear-gradient-14"/></defs><title>Piggyplant_Logo</title><path class="cls-1" d="M145,117.26c-.06,1.65-.21,3-.29,3.71a38.79,38.79,0,0,0-19.1-2A134.75,134.75,0,0,1,145,117.26Z" transform="translate(-11.92 -8.25)"/><path class="cls-2" d="M154.56,196.27a22.64,22.64,0,0,1,16.23-3.8c9.74,1.36,12.53,5.86,12.53,5.86S182,185.69,169.76,185C157.75,184.22,154.67,195.83,154.56,196.27Zm-38.51-66.69a32.55,32.55,0,0,1,2.73-5.24,20.34,20.34,0,0,0-14,8.09,40.68,40.68,0,0,1,10.38-2.78,59.05,59.05,0,0,0-9.07,27.61C104.6,175.61,117,177.09,117,177.09c-5.36-5.36-5.81-18.69-4.79-31.73A50.41,50.41,0,0,1,116.05,129.58Zm127,33.11C255.39,178,259.23,192.1,259.23,198c0,20.36,5.47,44.58-17.62,69-17.43,18.41-51.92,22.81-51.92,22.81l-4.93,12.77-7.39,19.14a2.77,2.77,0,0,1-2.53,1.78l-21.64.5a2.78,2.78,0,0,1-2.54-1.5l-7.87-15.19-9.63-18.58s-29.32-2.18-55-20.14Q80,267,81.81,265.15C91,255.82,95,246.83,96.71,241.2l10.78,3.29L96.55,210.16,69.66,233l11.08,3.38c-.59,3.14-3.16,13-13.22,23.59q-2.49-2.34-4.84-5C35.18,224.44,34,176.73,61,148.37c16.45-14.56,39.6-25.31,64.47-29.36l1.8,1.69c-.86,1-7,8.63-7.52,23.35-.57,15.84,7.06,22.74,7.06,22.74.65-.82,1.33-1.63,2.06-2.43,10-11,26.49-19.67,33.7-23.13,2.21-1.06,3.55-1.63,3.55-1.63a43.23,43.23,0,0,0-10-11.89,27.53,27.53,0,0,1,13,4.35,40.83,40.83,0,0,1,8.44-4.53s-15.89-5.81-28.34-4.49l-.77-.4a39.08,39.08,0,0,0,.38-5.37,115.9,115.9,0,0,1,44,9q3.93,1.68,7.57,3.47a143.85,143.85,0,0,1,13.77,7.65c1.44.9,2.84,1.82,4.19,2.74A113.89,113.89,0,0,1,243.08,162.69Zm10.51,64.07a27.56,27.56,0,0,0-17.29-25.32h0c-1-.5-31.4-15.74-51.8,14.7l0,0c-4.56,8.55-5.47,36.35,20.39,41.7,25.36,5.25,34.56-7,34.92-7.5h0A27.34,27.34,0,0,0,253.59,226.76ZM242.37,186.7c0-5.5-2.72-9.95-6.07-9.95s-6.08,4.45-6.08,9.95,2.72,9.94,6.08,9.94S242.37,192.19,242.37,186.7Zm-15.76-27.16c1.7-9.34-15.73-17.55-20.5-13.26C199.38,152.32,224.9,168.89,226.61,159.54Z" transform="translate(-11.92 -8.25)"/><path class="cls-3" d="M254.19,119.43c1.95,4.65-3.92,5.71-5.82,18.35a239.45,239.45,0,0,1-5.29,24.91,113.89,113.89,0,0,0-24.7-22.51c.56-4.85,5.07-11.09,12.83-15C239.14,121.18,250.63,119.78,254.19,119.43Z" transform="translate(-11.92 -8.25)"/><path class="cls-4" d="M253.84,118.7a8,8,0,0,1,.35.73c-3.56.35-15.05,1.75-23,5.75-7.76,3.91-12.27,10.15-12.83,15-1.35-.92-2.75-1.84-4.19-2.74,1.65-3.29,5.88-9.7,15.35-14.47a56.75,56.75,0,0,1,22.51-5.71A3.83,3.83,0,0,1,253.84,118.7Z" transform="translate(-11.92 -8.25)"/><path class="cls-5" d="M205.39,206.73A29,29,0,0,1,225,199.21a29.45,29.45,0,0,1,11.27,2.22h0a27.12,27.12,0,0,1,3.47,48.91h0A29.25,29.25,0,0,1,225,254.31c-15.79,0-28.59-12.34-28.59-27.55A27,27,0,0,1,205.39,206.73Zm38.31,20.63c0-5.88-2.24-10.65-5-10.65s-5,4.77-5,10.65,2.24,10.65,5,10.65S243.7,233.25,243.7,227.36Zm-23.64.25c0-5.88-2.24-10.65-5-10.65s-5,4.77-5,10.65,2.24,10.65,5,10.65S220.06,233.5,220.06,227.61Z" transform="translate(-11.92 -8.25)"/><ellipse class="cls-6" cx="226.77" cy="219.11" rx="5.01" ry="10.65"/><path class="cls-7" d="M241.61,267l-20.77,49.42a3,3,0,0,1-2.79,1.85H197.33a2.7,2.7,0,0,1-2.5-1.68l-6.14-15.06C201.91,297.75,230.91,287.45,241.61,267Z" transform="translate(-11.92 -8.25)"/><path class="cls-8" d="M236.3,176.75c3.35,0,6.07,4.45,6.07,9.95s-2.72,9.94-6.07,9.94-6.08-4.45-6.08-9.94S232.94,176.75,236.3,176.75Z" transform="translate(-11.92 -8.25)"/><path class="cls-9" d="M200.42,129.79c16-15.38,44-16.21,51.63-12.53A56.75,56.75,0,0,0,229.54,123c-9.47,4.77-13.7,11.18-15.35,14.47A143.85,143.85,0,0,0,200.42,129.79Z" transform="translate(-11.92 -8.25)"/><path class="cls-10" d="M206.11,146.28c4.77-4.29,22.2,3.92,20.5,13.26S199.38,152.32,206.11,146.28Z" transform="translate(-11.92 -8.25)"/><path class="cls-11" d="M236.28,201.43A29.45,29.45,0,0,0,225,199.21a29,29,0,0,0-19.62,7.52c-10.83-1.72-20.36,8.79-20.91,9.4C204.88,185.69,235.31,200.93,236.28,201.43Z" transform="translate(-11.92 -8.25)"/><path class="cls-12" d="M225,254.31a29.25,29.25,0,0,0,14.76-3.95c-.36.48-9.56,12.75-34.92,7.5-25.86-5.35-24.95-33.15-20.39-41.7l0,0c.55-.61,10.08-11.12,20.91-9.4a27,27,0,0,0-9,20C196.42,242,209.22,254.31,225,254.31Z" transform="translate(-11.92 -8.25)"/><ellipse class="cls-6" cx="203.13" cy="219.36" rx="5.01" ry="10.65"/><path class="cls-13" d="M188.69,301.5c-1.54.44-2.87.78-3.93,1.05l4.93-12.77s34.49-4.4,51.92-22.81C230.91,287.45,201.91,297.75,188.69,301.5Z" transform="translate(-11.92 -8.25)"/><path class="cls-8" d="M169.76,185c12.25.74,13.56,13.38,13.56,13.38s-2.79-4.5-12.53-5.86a22.64,22.64,0,0,0-16.23,3.8C154.67,195.83,157.75,184.22,169.76,185Z" transform="translate(-11.92 -8.25)"/><path class="cls-14" d="M177.59,127.53a40.83,40.83,0,0,0-8.44,4.53,27.53,27.53,0,0,0-13-4.35,40.88,40.88,0,0,0-6.87-4.67C161.7,121.72,177.59,127.53,177.59,127.53Z" transform="translate(-11.92 -8.25)"/><path class="cls-15" d="M163.29,54.43l3.41,13.4a33.49,33.49,0,0,1-21.26,7.58h-.7a49.05,49.05,0,0,1,1.44-5.23l-3,1.2a11.88,11.88,0,0,0-2,3.77A33.62,33.62,0,0,1,113.3,51.6h12.6a21.85,21.85,0,0,0,37.39,2.83Z" transform="translate(-11.92 -8.25)"/><path class="cls-16" d="M165.63,15l-4.19,12a21.84,21.84,0,0,0-35.5,5H113.33a33.6,33.6,0,0,1,52.3-17Z" transform="translate(-11.92 -8.25)"/><path class="cls-17" d="M139.74,93.77a41,41,0,0,1-.22-11.92,31.93,31.93,0,0,1,1.66-6.71,32.24,32.24,0,0,0,3.56.26c-1.27,5.68-2.48,15,.7,22.57a30.45,30.45,0,0,1,7.86-10.71c5.41-4.56,14.07-3.36,14.07-3.36s-.72,20.75-20.32,21.06a41.73,41.73,0,0,1,1.81,12.31c-1.3,0-2.61,0-3.91,0a33.55,33.55,0,0,0-.18-5.6,35.64,35.64,0,0,0-1.46-6.25c-3.57.2-11,0-16.5-4.42C119.24,95,118.16,85,118.16,85a25.71,25.71,0,0,1,12.93,1.19C134.71,87.63,137.76,91,139.74,93.77Z" transform="translate(-11.92 -8.25)"/><path class="cls-18" d="M148.48,122.64l.77.4a40.88,40.88,0,0,1,6.87,4.67,43.23,43.23,0,0,1,10,11.89s-1.34.57-3.55,1.63a53.9,53.9,0,0,0-32.29-20.07c-1.79-.35-2.88-.45-3-.46h0l-1.8-1.69h.09a38.79,38.79,0,0,1,19.1,2A35.78,35.78,0,0,1,148.48,122.64Z" transform="translate(-11.92 -8.25)"/><path class="cls-14" d="M129.2,122.51c.44-.61.82-1.05,1.08-1.35a53.9,53.9,0,0,1,32.29,20.07c-7.21,3.46-23.74,12.12-33.7,23.13-1.54-2.36-4.68-8.6-5.06-20.73C123.46,132.18,127.06,125.46,129.2,122.51Z" transform="translate(-11.92 -8.25)"/><path class="cls-19" d="M150.49,32l-3.21,7.35H123.74a21.71,21.71,0,0,1,2.2-7.35Z" transform="translate(-11.92 -8.25)"/><path class="cls-20" d="M150.49,44.25l-3.21,7.35H125.9a21.67,21.67,0,0,1-2.17-7.35Z" transform="translate(-11.92 -8.25)"/><path class="cls-21" d="M148.86,117.27a39.08,39.08,0,0,1-.38,5.37,35.78,35.78,0,0,0-3.82-1.67c.08-.7.23-2.06.29-3.71C146.25,117.25,147.56,117.25,148.86,117.27Z" transform="translate(-11.92 -8.25)"/><path class="cls-22" d="M143.22,71.37l3-1.2a49.05,49.05,0,0,0-1.44,5.23,32.24,32.24,0,0,1-3.56-.26A11.88,11.88,0,0,1,143.22,71.37Z" transform="translate(-11.92 -8.25)"/><path class="cls-23" d="M140.81,307.24a176.91,176.91,0,0,1-34.47-3.88,74.77,74.77,0,0,1-10.85-3.12l-4,14.65a4.55,4.55,0,0,1-4.39,3.35H67.24a4.54,4.54,0,0,1-4.11-2.62c-1.38-2.93-3.89-8.91-8-20.62-1.81-5.19-3.51-9.71-5-13.54a57.3,57.3,0,0,0,28-12.9c25.7,18,55,20.14,55,20.14l9.63,18.58Z" transform="translate(-11.92 -8.25)"/><path class="cls-24" d="M140.81,307.24l-4.33,9.53a2.49,2.49,0,0,1-2.27,1.47H114.75a2.48,2.48,0,0,1-2.27-1.46l-6.14-13.42A176.91,176.91,0,0,0,140.81,307.24Z" transform="translate(-11.92 -8.25)"/><path class="cls-18" d="M130.28,121.16c-.26.3-.64.74-1.08,1.35l-1.92-1.81C127.4,120.71,128.49,120.81,130.28,121.16Z" transform="translate(-11.92 -8.25)"/><path class="cls-18" d="M127.28,120.7l1.92,1.81c-2.14,2.95-5.74,9.67-5.39,21.12.38,12.13,3.52,18.37,5.06,20.73-.73.8-1.41,1.61-2.06,2.43,0,0-7.63-6.9-7.06-22.74.53-14.72,6.66-22.34,7.52-23.35Z" transform="translate(-11.92 -8.25)"/><path class="cls-25" d="M113.33,32h12.61a21.71,21.71,0,0,0-2.2,7.35H112A33.63,33.63,0,0,1,113.33,32Z" transform="translate(-11.92 -8.25)"/><path class="cls-26" d="M125.9,51.6H113.3A33.61,33.61,0,0,1,112,44.25h11.78A21.67,21.67,0,0,0,125.9,51.6Z" transform="translate(-11.92 -8.25)"/><path class="cls-27" d="M112,39.33h11.79a22.85,22.85,0,0,0-.14,2.5,21.54,21.54,0,0,0,.13,2.42H112c-.06-.8-.09-1.61-.09-2.42S111.89,40.15,112,39.33Z" transform="translate(-11.92 -8.25)"/><path class="cls-14" d="M115.15,129.65a40.68,40.68,0,0,0-10.38,2.78,20.34,20.34,0,0,1,14-8.09,32.55,32.55,0,0,0-2.73,5.24Z" transform="translate(-11.92 -8.25)"/><path class="cls-14" d="M116.05,129.58a50.41,50.41,0,0,0-3.82,15.78c-1,13-.57,26.37,4.79,31.73,0,0-12.42-1.48-10.94-19.83a59.05,59.05,0,0,1,9.07-27.61Z" transform="translate(-11.92 -8.25)"/><path class="cls-28" d="M106.78,32h6.55A33.63,33.63,0,0,0,112,39.33h-8.39Z" transform="translate(-11.92 -8.25)"/><path class="cls-29" d="M113.3,51.6h-9.74l3.22-7.35H112A33.61,33.61,0,0,0,113.3,51.6Z" transform="translate(-11.92 -8.25)"/><polygon class="cls-30" points="84.79 232.95 68.82 228.08 57.74 224.7 84.63 201.91 95.57 236.24 84.79 232.95"/><path class="cls-30" d="M80.74,236.33l16,4.87c-1.71,5.63-5.7,14.62-14.9,23.95Q80,267,78.14,268.56a90.27,90.27,0,0,1-10.62-8.64C77.58,249.37,80.15,239.47,80.74,236.33Z" transform="translate(-11.92 -8.25)"/><path class="cls-30" d="M67.52,259.92a90.27,90.27,0,0,0,10.62,8.64,57.3,57.3,0,0,1-28,12.9h0c-1.53-3.87-2.9-7-4-9.54a40.79,40.79,0,0,0,20.33-10.87C66.81,260.67,67.17,260.3,67.52,259.92Z" transform="translate(-11.92 -8.25)"/><path class="cls-31" d="M40.08,175.67a111.47,111.47,0,0,1,6.65-11.23A84.91,84.91,0,0,1,61,148.37C34,176.73,35.18,224.44,62.68,255q2.35,2.61,4.84,5c-.35.38-.71.75-1.09,1.13A40.79,40.79,0,0,1,46.1,271.92c-2-4.52-3.25-6.77-3.25-6.77-12.34-22-19-51.18-6.21-82C37.66,180.64,38.8,178.16,40.08,175.67Z" transform="translate(-11.92 -8.25)"/><path class="cls-32" d="M39.36,153.66c4.11,4.39.41,15.16-7.06,18.93a11.74,11.74,0,0,1-3.58-4.41c6.53-2.86,7.64-10.89,3.12-12.17-3.2-.9-5.94,6.19-3.12,12.17A11.33,11.33,0,0,1,26,169a13.32,13.32,0,0,1-3.4.17A18,18,0,0,1,21.51,163C21.51,148.42,33.81,147.73,39.36,153.66Z" transform="translate(-11.92 -8.25)"/><path class="cls-32" d="M40.08,175.67c-1.28,2.49-2.42,5-3.44,7.44-2.37-1.08-8-4.06-11.69-9.34a12.07,12.07,0,0,0,7.35-1.18A16.71,16.71,0,0,0,40.08,175.67Z" transform="translate(-11.92 -8.25)"/><path class="cls-32" d="M28.72,168.18a11.74,11.74,0,0,0,3.58,4.41A12.07,12.07,0,0,1,25,173.77a18.7,18.7,0,0,1-2.38-4.6A13.32,13.32,0,0,0,26,169,11.33,11.33,0,0,0,28.72,168.18Z" transform="translate(-11.92 -8.25)"/><path class="cls-32" d="M25,173.77a13.52,13.52,0,0,1-1.69-.37c-7-2-10-5.63-11.34-8.59l1.16-1.36a12.36,12.36,0,0,0,9.49,5.72A18.7,18.7,0,0,0,25,173.77Z" transform="translate(-11.92 -8.25)"/><path class="cls-33" d="M415.1,120.73a61.87,61.87,0,0,1,6.08,27.59,61,61,0,0,1-6.08,27.46,54.11,54.11,0,0,1-15.66,19.52q-19.41,15-40.21,15H330v26.42a68.7,68.7,0,0,1-.35,8.06,18.77,18.77,0,0,1-2.22,6.2q-3.27,6.3-18.23,6.31-16.36,0-19.17-8.65-1.41-4-1.4-12.16V106.71a66.84,66.84,0,0,1,.35-8.07,18.58,18.58,0,0,1,2.22-6.19q3.27-6.32,18.23-6.31h50q20.58,0,40,15A53.93,53.93,0,0,1,415.1,120.73Zm-41.84,43q6.76-5.13,6.77-15.42t-6.77-15.55q-6.79-5.25-14-5.26H330v41.38h29.45Q366.48,168.89,373.26,163.74Z" transform="translate(-11.92 -8.25)"/><path class="cls-34" d="M470.15,111.5a9.9,9.9,0,0,1-6.2,4.79,50.47,50.47,0,0,1-23.61,0,9.78,9.78,0,0,1-6.19-4.91,19.84,19.84,0,0,1-2.1-6.19,66.17,66.17,0,0,1-.36-8.07,66.09,66.09,0,0,1,.36-8.06,19,19,0,0,1,2-6q3.27-6.31,18.24-6.31Q467,76.79,470,83.1a18.58,18.58,0,0,1,2.22,6.19,66.73,66.73,0,0,1,.35,8.07,66.54,66.54,0,0,1-.35,8.06A18.68,18.68,0,0,1,470.15,111.5Zm-38.46,43.36a66.09,66.09,0,0,1,.36-8.06,21.61,21.61,0,0,1,2-6.2q3.27-6.07,18.24-6.07,11.22,0,15.89,4,4,3.27,4.21,10.05.22,2.34.23,6.78v81.81a66.62,66.62,0,0,1-.35,8.07A18.51,18.51,0,0,1,470,251.4q-3,6.09-18,6.08-14.73,0-18-6.31a21.68,21.68,0,0,1-2-6.08,65.67,65.67,0,0,1-.36-8.18Z" transform="translate(-11.92 -8.25)"/><path class="cls-35" d="M569.38,242.05q-8.89,11.7-28.29,11.69t-36.35-17.88q-17-17.88-16.95-41.73t17.07-41.84q17.05-18,37.4-18a35.25,35.25,0,0,1,14.49,2.92c4.36,1.95,7.37,3.74,9,5.38a31.25,31.25,0,0,1,3.86,4.56q.71-6.54,4.79-9.94c2.73-2.25,7.13-3.39,13.21-3.39s10.52.47,13.32,1.41a9.81,9.81,0,0,1,6,4.79,19.17,19.17,0,0,1,2.11,6,65.64,65.64,0,0,1,.35,8V250.7q0,26.88-18.7,43.36t-42.08,16.48a70.78,70.78,0,0,1-33.89-8.64q-16.14-8.65-16.13-15.67,0-9.11,7-16.13a57.49,57.49,0,0,1,6.9-6.77,9.14,9.14,0,0,1,5.72-1.87,11,11,0,0,1,6.78,2.8q11.22,8.64,24.31,8.65a17.74,17.74,0,0,0,14.5-7,26.12,26.12,0,0,0,5.61-16.83Zm-41.61-47.8q0,7.6,6,13.67A19.49,19.49,0,0,0,548.22,214a18.25,18.25,0,0,0,14.14-6.19A19.8,19.8,0,0,0,568,194.25a21.14,21.14,0,0,0-5.37-13.79Q557.21,174,548.1,174t-14.72,6.31A20.5,20.5,0,0,0,527.77,194.25Z" transform="translate(-11.92 -8.25)"/><path class="cls-35" d="M706.12,242.05q-8.88,11.7-28.28,11.69t-36.35-17.88q-16.95-17.88-17-41.73t17.06-41.84q17.07-18,37.41-18a35.32,35.32,0,0,1,14.49,2.92q6.54,2.92,9,5.38a31.89,31.89,0,0,1,3.86,4.56q.69-6.54,4.79-9.94c2.72-2.25,7.13-3.39,13.2-3.39s10.52.47,13.33,1.41a9.84,9.84,0,0,1,6,4.79,18.86,18.86,0,0,1,2.1,6,63.61,63.61,0,0,1,.35,8V250.7q0,26.88-18.7,43.36t-42.07,16.48a70.82,70.82,0,0,1-33.9-8.64q-16.12-8.65-16.13-15.67,0-9.11,7-16.13a57.59,57.59,0,0,1,6.89-6.77,9.16,9.16,0,0,1,5.73-1.87,11,11,0,0,1,6.78,2.8q11.22,8.64,24.31,8.65a17.73,17.73,0,0,0,14.49-7,26.12,26.12,0,0,0,5.61-16.83Zm-41.61-47.8q0,7.6,6,13.67A19.53,19.53,0,0,0,685,214a18.27,18.27,0,0,0,14.14-6.19,19.8,19.8,0,0,0,5.61-13.56,21.1,21.1,0,0,0-5.38-13.79Q694,174,684.85,174t-14.73,6.31A20.5,20.5,0,0,0,664.51,194.25Z" transform="translate(-11.92 -8.25)"/><path class="cls-36" d="M877.46,135.69q13.8,6.09,13.8,14.73a17.61,17.61,0,0,1-1.87,8,38.21,38.21,0,0,0-1.87,4l-61.25,137q-1.87,4.44-3.15,6.78a14.36,14.36,0,0,1-4.09,4.44,11.35,11.35,0,0,1-7,2.11q-4.2,0-12.39-3.51-13.79-6.08-13.79-14.49,0-5.61,22.44-53.53l-46.52-78.31q-4.66-7.71-4.67-11.45,0-7.49,12.62-15,7.95-4.68,12.39-4.68a12.81,12.81,0,0,1,7.25,1.87,14.19,14.19,0,0,1,4.09,3.86q1.27,2,12.85,21.74T828.38,196q1.15-3.74,12.62-28.87t12.27-26.76a23,23,0,0,1,2.69-4,10.12,10.12,0,0,1,8.53-4Q870,132.42,877.46,135.69Z" transform="translate(-11.92 -8.25)"/><path class="cls-37" d="M904.11,290.91V154.39a65.45,65.45,0,0,1,.35-7.94,19.18,19.18,0,0,1,2-5.85q3.27-6.3,15.66-6.31t16.71,3.16a12.63,12.63,0,0,1,5,9.23q8.88-12.15,27.93-12.15t36.12,18q17.05,18,17.06,41.85T1008,236.21q-17,18-36.12,18t-27.82-10.75v47.21a63.5,63.5,0,0,1-.35,7.95,18.78,18.78,0,0,1-2.1,6,9.89,9.89,0,0,1-6,4.8,37.69,37.69,0,0,1-11.46,1.4,38.8,38.8,0,0,1-11.57-1.4,10,10,0,0,1-6.08-4.68,17.91,17.91,0,0,1-2.1-5.84A65.75,65.75,0,0,1,904.11,290.91Zm46.28-110.1A20.85,20.85,0,0,0,945,194.6a20.17,20.17,0,0,0,5.49,13.68,17.91,17.91,0,0,0,14,6.19A19.51,19.51,0,0,0,979,208.39a19.2,19.2,0,0,0,6-13.79,20.21,20.21,0,0,0-5.61-13.91,18.79,18.79,0,0,0-14.61-6.19Q955.77,174.5,950.39,180.81Z" transform="translate(-11.92 -8.25)"/><path class="cls-38" d="M1040.15,96.89a68.7,68.7,0,0,1,.35-8.06,22,22,0,0,1,2-6.2q3.27-6.31,18.23-6.31,14.27,0,17.77,6.31a18.51,18.51,0,0,1,2.22,6.31,72,72,0,0,1,.35,8.18V205.35q0,8.42,1.4,10.64c.94,1.48,3,2.22,6.2,2.22a38,38,0,0,1,6.43.35,11.86,11.86,0,0,1,4,2q4.68,3,4.68,16.59,0,14.73-4.68,18-6.07,4.22-29,1.41-18-2.34-23.37-11.92-6.56-11.46-6.55-36.47Z" transform="translate(-11.92 -8.25)"/><path class="cls-39" d="M1196.54,147.38q1.39-13.08,18.46-13.09,9.12,0,13.56,1.4a9.86,9.86,0,0,1,6.2,4.91,20.23,20.23,0,0,1,2.1,6.2,68.7,68.7,0,0,1,.35,8.06v81.82a68.7,68.7,0,0,1-.35,8.06,21.57,21.57,0,0,1-2,6.2q-3.27,6.07-16,6.07t-17.06-3.15a12.62,12.62,0,0,1-5-9.23Q1188.12,257,1167.9,257t-37.52-18.46q-17.3-18.47-17.3-42.9t17.42-42.77q17.41-18.36,38.22-18.35a36.39,36.39,0,0,1,14.49,2.8q6.54,2.8,9.12,5.26A34,34,0,0,1,1196.54,147.38ZM1154,196q0,7.73,6.08,13.91a19.87,19.87,0,0,0,14.73,6.2,18.62,18.62,0,0,0,14.37-6.31,20.27,20.27,0,0,0,5.73-13.91,21.62,21.62,0,0,0-5.49-14.15q-5.51-6.54-14.73-6.54a18.94,18.94,0,0,0-15,6.54A21.24,21.24,0,0,0,1154,196Z" transform="translate(-11.92 -8.25)"/><path class="cls-40" d="M1324.4,134.29q23.37,0,38.92,17.88t15.54,43.6v41.14a66.62,66.62,0,0,1-.35,8.07,19,19,0,0,1-2,6q-3.29,6.3-18.24,6.31-16.59,0-19.16-8.65-1.41-4-1.41-11.92V195.54q0-9.58-5.49-15t-14.73-5.38q-9.23,0-15,5.61t-5.72,14.73v41.37a68.78,68.78,0,0,1-.35,8.07,16.71,16.71,0,0,1-2.23,6q-3,6.3-18,6.31-14.73,0-18-6.31a21.26,21.26,0,0,1-2-6.2,68.7,68.7,0,0,1-.35-8.06V153.93a66,66,0,0,1,.35-7.83,16.49,16.49,0,0,1,2.22-6q3.27-5.85,18-5.85,14.25,0,17.53,5.38a18.56,18.56,0,0,1,2.34,9.58,23.31,23.31,0,0,1,4.21-4.67,40.68,40.68,0,0,1,6.31-4.91A30.63,30.63,0,0,1,1324.4,134.29Z" transform="translate(-11.92 -8.25)"/><path class="cls-41" d="M1466.76,175.67l-15.2-.94V207q0,6.31,2,9.12c1.32,1.87,3.82,2.8,7.48,2.8a76.75,76.75,0,0,1,8.41.35,16.89,16.89,0,0,1,6.2,2.22q5.37,3,5.38,15.66,0,14.73-6.55,18a21.3,21.3,0,0,1-6.19,2,66.31,66.31,0,0,1-7.84.35q-24.3,0-36.93-11t-12.62-37.17v-34.6a61.3,61.3,0,0,1-9.59.7,10.73,10.73,0,0,1-8.53-4q-3.39-4-3.39-13.56t1.17-13.91q1.17-4.32,3.27-6.19a14.34,14.34,0,0,1,9.35-3l7.72.93V111.62a65.64,65.64,0,0,1,.35-8,14.66,14.66,0,0,1,2.22-5.61q3-5.84,18-5.84,15.9,0,18.93,8.64,1.17,3.75,1.17,11.93v22.9q10.29-.93,15.55-.93a67.62,67.62,0,0,1,8,.35,18.89,18.89,0,0,1,6.19,2.22q6.07,3,6.08,18,0,14.73-6.31,18a22,22,0,0,1-6.2,2A68.7,68.7,0,0,1,1466.76,175.67Z" transform="translate(-11.92 -8.25)"/></svg>